<svg width="400" height="300" viewBox="0 0 400 300" xmlns="http://www.w3.org/2000/svg">
  <defs>
    <linearGradient id="skyGradient" x1="0%" y1="0%" x2="0%" y2="100%">
      <stop offset="0%" style="stop-color:#EDE9DA;stop-opacity:1" />
      <stop offset="70%" style="stop-color:#DDCAA4;stop-opacity:1" />
      <stop offset="100%" style="stop-color:#BEA572;stop-opacity:1" />
    </linearGradient>
    <linearGradient id="mountainGradient" x1="0%" y1="0%" x2="100%" y2="100%">
      <stop offset="0%" style="stop-color:#8B7A47;stop-opacity:1" />
      <stop offset="100%" style="stop-color:#664D07;stop-opacity:1" />
    </linearGradient>
    <linearGradient id="fireGradient" x1="0%" y1="100%" x2="0%" y2="0%">
      <stop offset="0%" style="stop-color:#DC8711;stop-opacity:1" />
      <stop offset="50%" style="stop-color:#DC8711;stop-opacity:0.8" />
      <stop offset="100%" style="stop-color:#DC8711;stop-opacity:0.3" />
    </linearGradient>
  </defs>
  
  <!-- Sky background -->
  <rect width="400" height="300" fill="url(#skyGradient)"/>
  
  <!-- Mountain background -->
  <path d="M0 150 L80 100 L160 130 L240 80 L320 110 L400 90 L400 300 L0 300 Z" 
        fill="url(#mountainGradient)" opacity="0.8"/>
  
  <!-- Foreground hills -->
  <path d="M0 200 L100 180 L200 190 L300 170 L400 180 L400 300 L0 300 Z" 
        fill="#8B7A47"/>
  
  <!-- Hiking trail -->
  <path d="M50 250 Q150 230 250 240 Q300 245 350 235" 
        stroke="#BEA572" stroke-width="8" fill="none" opacity="0.7"/>
  <path d="M50 250 Q150 230 250 240 Q300 245 350 235" 
        stroke="#8B7A47" stroke-width="4" fill="none"/>
  
  <!-- Hikers on trail -->
  <!-- Hiker 1 -->
  <g transform="translate(180, 220)">
    <!-- Body -->
    <ellipse cx="0" cy="10" rx="4" ry="8" fill="#DC8711"/>
    <!-- Head -->
    <circle cx="0" cy="0" r="3" fill="#BEA572"/>
    <!-- Backpack -->
    <ellipse cx="-2" cy="8" rx="2" ry="4" fill="#664D07"/>
    <!-- Legs -->
    <line x1="-2" y1="18" x2="-4" y2="25" stroke="#8B7A47" stroke-width="2"/>
    <line x1="2" y1="18" x2="4" y2="25" stroke="#8B7A47" stroke-width="2"/>
    <!-- Arms -->
    <line x1="-4" y1="8" x2="-6" y2="15" stroke="#BEA572" stroke-width="2"/>
    <line x1="4" y1="8" x2="6" y2="15" stroke="#BEA572" stroke-width="2"/>
    <!-- Hiking stick -->
    <line x1="6" y1="15" x2="8" y2="5" stroke="#8B7A47" stroke-width="1"/>
  </g>
  
  <!-- Hiker 2 -->
  <g transform="translate(220, 225)">
    <!-- Body -->
    <ellipse cx="0" cy="10" rx="4" ry="8" fill="#8B7A47"/>
    <!-- Head -->
    <circle cx="0" cy="0" r="3" fill="#BEA572"/>
    <!-- Hat -->
    <ellipse cx="0" cy="-2" rx="4" ry="2" fill="#664D07"/>
    <!-- Backpack -->
    <ellipse cx="-2" cy="8" rx="2" ry="4" fill="#DC8711"/>
    <!-- Legs -->
    <line x1="-2" y1="18" x2="-4" y2="25" stroke="#8B7A47" stroke-width="2"/>
    <line x1="2" y1="18" x2="4" y2="25" stroke="#8B7A47" stroke-width="2"/>
    <!-- Arms -->
    <line x1="-4" y1="8" x2="-6" y2="15" stroke="#BEA572" stroke-width="2"/>
    <line x1="4" y1="8" x2="6" y2="15" stroke="#BEA572" stroke-width="2"/>
  </g>
  
  <!-- Campfire area -->
  <g transform="translate(120, 260)">
    <!-- Fire pit stones -->
    <ellipse cx="0" cy="0" rx="15" ry="8" fill="#664D07"/>
    <ellipse cx="0" cy="0" rx="10" ry="5" fill="#8B7A47"/>
    
    <!-- Fire -->
    <ellipse cx="0" cy="-5" rx="8" ry="10" fill="url(#fireGradient)"/>
    <ellipse cx="-2" cy="-8" rx="3" ry="6" fill="#DC8711" opacity="0.8"/>
    <ellipse cx="2" cy="-6" rx="2" ry="4" fill="#DC8711" opacity="0.9"/>
    
    <!-- Logs -->
    <rect x="-12" y="2" width="8" height="3" fill="#8B7A47" transform="rotate(-20)"/>
    <rect x="4" y="2" width="8" height="3" fill="#8B7A47" transform="rotate(20)"/>
    <rect x="-6" y="5" width="12" height="3" fill="#8B7A47"/>
    
    <!-- Smoke -->
    <ellipse cx="0" cy="-15" rx="2" ry="3" fill="#DDCAA4" opacity="0.5"/>
    <ellipse cx="1" cy="-20" rx="3" ry="4" fill="#DDCAA4" opacity="0.3"/>
    <ellipse cx="-1" cy="-25" rx="4" ry="5" fill="#DDCAA4" opacity="0.2"/>
  </g>
  
  <!-- Seating around campfire -->
  <!-- Log seats -->
  <rect x="90" y="270" width="20" height="6" fill="#8B7A47" stroke="#664D07" stroke-width="1"/>
  <rect x="130" y="275" width="20" height="6" fill="#8B7A47" stroke="#664D07" stroke-width="1"/>
  <rect x="105" y="285" width="20" height="6" fill="#8B7A47" stroke="#664D07" stroke-width="1"/>
  
  <!-- Trees -->
  <!-- Tree 1 -->
  <rect x="50" y="200" width="8" height="40" fill="#664D07"/>
  <ellipse cx="54" cy="190" rx="20" ry="15" fill="#8B7A47" opacity="0.8"/>
  <ellipse cx="54" cy="185" rx="15" ry="12" fill="#8B7A47" opacity="0.9"/>
  
  <!-- Tree 2 -->
  <rect x="320" y="190" width="10" height="50" fill="#664D07"/>
  <ellipse cx="325" cy="180" rx="25" ry="18" fill="#8B7A47" opacity="0.8"/>
  <ellipse cx="325" cy="175" rx="18" ry="14" fill="#8B7A47" opacity="0.9"/>
  
  <!-- Tree 3 -->
  <rect x="370" y="210" width="6" height="30" fill="#664D07"/>
  <ellipse cx="373" cy="205" rx="15" ry="12" fill="#8B7A47" opacity="0.8"/>
  
  <!-- Birds in sky -->
  <g stroke="#664D07" stroke-width="1" fill="none">
    <path d="M100 60 Q105 55 110 60 Q115 55 120 60"/>
    <path d="M150 70 Q155 65 160 70 Q165 65 170 70"/>
    <path d="M280 50 Q285 45 290 50 Q295 45 300 50"/>
  </g>
  
  <!-- Clouds -->
  <g opacity="0.4">
    <ellipse cx="80" cy="40" rx="25" ry="12" fill="white"/>
    <ellipse cx="95" cy="35" rx="20" ry="10" fill="white"/>
    <ellipse cx="65" cy="35" rx="18" ry="8" fill="white"/>
    
    <ellipse cx="300" cy="30" rx="30" ry="15" fill="white"/>
    <ellipse cx="320" cy="25" rx="25" ry="12" fill="white"/>
    <ellipse cx="280" cy="25" rx="22" ry="10" fill="white"/>
  </g>
  
  <!-- Sun -->
  <circle cx="350" cy="50" r="20" fill="#DC8711" opacity="0.6"/>
  <circle cx="350" cy="50" r="15" fill="#DC8711" opacity="0.8"/>
  
  <!-- Sun rays -->
  <g stroke="#DC8711" stroke-width="2" opacity="0.4">
    <line x1="350" y1="20" x2="350" y2="30"/>
    <line x1="350" y1="70" x2="350" y2="80"/>
    <line x1="320" y1="50" x2="330" y2="50"/>
    <line x1="370" y1="50" x2="380" y2="50"/>
    <line x1="330" y1="30" x2="335" y2="35"/>
    <line x1="365" y1="65" x2="370" y2="70"/>
    <line x1="370" y1="30" x2="365" y2="35"/>
    <line x1="335" y1="65" x2="330" y2="70"/>
  </g>
  
  <!-- Wildflowers -->
  <g>
    <circle cx="70" cy="240" r="2" fill="#DC8711"/>
    <rect x="69" y="242" width="2" height="8" fill="#8B7A47"/>
    
    <circle cx="85" cy="245" r="1.5" fill="#BEA572"/>
    <rect x="84" y="246" width="2" height="6" fill="#8B7A47"/>
    
    <circle cx="280" cy="250" r="2" fill="#DC8711"/>
    <rect x="279" y="252" width="2" height="8" fill="#8B7A47"/>
    
    <circle cx="295" cy="255" r="1.5" fill="#BEA572"/>
    <rect x="294" y="256" width="2" height="6" fill="#8B7A47"/>
  </g>
</svg>