<svg width="400" height="300" viewBox="0 0 400 300" xmlns="http://www.w3.org/2000/svg">
  <defs>
    <linearGradient id="wallGradient" x1="0%" y1="0%" x2="100%" y2="100%">
      <stop offset="0%" style="stop-color:#EDE9DA;stop-opacity:1" />
      <stop offset="100%" style="stop-color:#DDCAA4;stop-opacity:1" />
    </linearGradient>
    <linearGradient id="floorGradient" x1="0%" y1="0%" x2="100%" y2="100%">
      <stop offset="0%" style="stop-color:#BEA572;stop-opacity:1" />
      <stop offset="100%" style="stop-color:#8B7A47;stop-opacity:1" />
    </linearGradient>
  </defs>
  
  <!-- Room background -->
  <rect width="400" height="300" fill="url(#wallGradient)"/>
  
  <!-- Floor -->
  <rect x="0" y="200" width="400" height="100" fill="url(#floorGradient)"/>
  
  <!-- Large panoramic window -->
  <rect x="200" y="10" width="190" height="100" fill="#DDCAA4" stroke="#664D07" stroke-width="3"/>
  <rect x="205" y="15" width="180" height="90" fill="#EDE9DA"/>
  
  <!-- Panoramic mountain view -->
  <rect x="205" y="15" width="180" height="90" fill="#BEA572"/>
  <path d="M205 50 L240 25 L280 40 L320 20 L360 35 L385 25 L385 105 L205 105 Z" fill="#8B7A47"/>
  <path d="M205 70 L235 60 L270 65 L310 55 L350 60 L385 55 L385 105 L205 105 Z" fill="#664D07"/>
  
  <!-- Window divisions -->
  <line x1="265" y1="15" x2="265" y2="105" stroke="#664D07" stroke-width="2"/>
  <line x1="325" y1="15" x2="325" y2="105" stroke="#664D07" stroke-width="2"/>
  <line x1="205" y1="60" x2="385" y2="60" stroke="#664D07" stroke-width="2"/>
  
  <!-- Living area sofa -->
  <rect x="20" y="120" width="80" height="35" fill="#8B7A47" stroke="#664D07" stroke-width="2"/>
  <rect x="20" y="115" width="80" height="10" fill="#BEA572"/>
  <rect x="95" y="115" width="10" height="25" fill="#BEA572"/>
  
  <!-- Sofa cushions -->
  <rect x="25" y="120" width="18" height="8" fill="#DDCAA4"/>
  <rect x="45" y="120" width="18" height="8" fill="#DDCAA4"/>
  <rect x="65" y="120" width="18" height="8" fill="#DDCAA4"/>
  <rect x="85" y="120" width="12" height="8" fill="#DDCAA4"/>
  
  <!-- Coffee table -->
  <rect x="30" y="170" width="60" height="25" fill="#8B7A47" stroke="#664D07" stroke-width="1"/>
  <rect x="35" y="175" width="50" height="3" fill="#664D07"/>
  
  <!-- Dining area table -->
  <ellipse cx="150" cy="180" rx="35" ry="20" fill="#8B7A47" stroke="#664D07" stroke-width="2"/>
  
  <!-- Dining chairs -->
  <rect x="120" y="160" width="15" height="20" fill="#8B7A47" stroke="#664D07" stroke-width="1"/>
  <rect x="120" y="155" width="15" height="8" fill="#BEA572"/>
  
  <rect x="165" y="160" width="15" height="20" fill="#8B7A47" stroke="#664D07" stroke-width="1"/>
  <rect x="165" y="155" width="15" height="8" fill="#BEA572"/>
  
  <rect x="135" y="200" width="15" height="20" fill="#8B7A47" stroke="#664D07" stroke-width="1"/>
  <rect x="135" y="195" width="15" height="8" fill="#BEA572"/>
  
  <rect x="155" y="200" width="15" height="20" fill="#8B7A47" stroke="#664D07" stroke-width="1"/>
  <rect x="155" y="195" width="15" height="8" fill="#BEA572"/>
  
  <!-- Kitchenette -->
  <rect x="300" y="120" width="90" height="40" fill="#BEA572" stroke="#664D07" stroke-width="2"/>
  
  <!-- Kitchen counter -->
  <rect x="305" y="125" width="80" height="5" fill="#8B7A47"/>
  
  <!-- Sink -->
  <circle cx="320" cy="140" r="8" fill="#DDCAA4" stroke="#8B7A47" stroke-width="1"/>
  
  <!-- Stove -->
  <rect x="340" y="135" width="20" height="15" fill="#664D07"/>
  <circle cx="345" cy="142" r="3" fill="#8B7A47"/>
  <circle cx="355" cy="142" r="3" fill="#8B7A47"/>
  
  <!-- Refrigerator -->
  <rect x="365" y="125" width="20" height="30" fill="#DDCAA4" stroke="#8B7A47" stroke-width="1"/>
  <circle cx="380" cy="140" r="1" fill="#664D07"/>
  
  <!-- Bedroom area (partial view) -->
  <rect x="200" y="140" width="80" height="50" fill="#DC8711" stroke="#664D07" stroke-width="2"/>
  <rect x="195" y="135" width="90" height="8" fill="#8B7A47"/>
  
  <!-- Bed pillows -->
  <rect x="210" y="145" width="20" height="12" fill="#DDCAA4"/>
  <rect x="235" y="145" width="20" height="12" fill="#DDCAA4"/>
  <rect x="260" y="145" width="15" height="12" fill="#DDCAA4"/>
  
  <!-- Large TV -->
  <rect x="110" y="40" width="70" height="45" fill="#664D07" stroke="#8B7A47" stroke-width="2"/>
  <rect x="115" y="45" width="60" height="35" fill="#BEA572"/>
  
  <!-- Terrace door -->
  <rect x="320" y="160" width="60" height="40" fill="#DDCAA4" stroke="#664D07" stroke-width="2"/>
  <rect x="325" y="165" width="50" height="30" fill="#EDE9DA"/>
  <circle cx="370" cy="180" r="2" fill="#664D07"/>
  
  <!-- Ceiling lights -->
  <circle cx="80" cy="20" r="12" fill="#DDCAA4" stroke="#8B7A47" stroke-width="2"/>
  <circle cx="80" cy="20" r="6" fill="#DC8711" opacity="0.6"/>
  
  <circle cx="300" cy="20" r="12" fill="#DDCAA4" stroke="#8B7A47" stroke-width="2"/>
  <circle cx="300" cy="20" r="6" fill="#DC8711" opacity="0.6"/>
  
  <!-- Large area rug -->
  <ellipse cx="120" cy="250" rx="80" ry="30" fill="#DC8711" opacity="0.8"/>
  <ellipse cx="120" cy="250" rx="60" ry="22" fill="#BEA572" opacity="0.6"/>
  
  <!-- Wall decorations -->
  <rect x="20" y="60" width="25" height="35" fill="#BEA572" stroke="#8B7A47" stroke-width="2"/>
  <rect x="25" y="65" width="15" height="25" fill="#DDCAA4"/>
  
  <rect x="60" y="70" width="20" height="25" fill="#BEA572" stroke="#8B7A47" stroke-width="2"/>
  <rect x="65" y="75" width="10" height="15" fill="#DDCAA4"/>
  
  <!-- Terrace railing -->
  <rect x="320" y="200" width="60" height="4" fill="#8B7A47"/>
  <line x1="330" y1="200" x2="330" y2="210" stroke="#8B7A47" stroke-width="2"/>
  <line x1="350" y1="200" x2="350" y2="210" stroke="#8B7A47" stroke-width="2"/>
  <line x1="370" y1="200" x2="370" y2="210" stroke="#8B7A47" stroke-width="2"/>
</svg>